Files :
wire.s3.extra.conversation.w.david.simon.x264.mkv
wire.s3.extra.q&a.x264.mkv
wire.s3.extra.trailer.x264.mkv

General
Unique ID                        : 213655236949428621902300639154885055267 (0xA0BC807A008EA3B1AA42F59EF8F75323)
Complete name                    : The.Wire.S3.2004.Extras.SD.x264/wire.s3.extra.conversation.w.david.simon.x264.mkv
Format                           : Matroska
File size                        : 522 MiB
Duration                         : 27mn 28s
Overall bit rate                 : 2 654 Kbps
Encoded date                     : UTC 2011-01-23 07:54:27
Writing application              : mkvmerge v4.1.0 ('Boiling Point') built on Jul  1 2010 14:37:28
Writing library                  : libebml v1.0.0 + libmatroska v1.0.0

Video
ID                               : 1
Format                           : AVC
Format/Info                      : Advanced Video Codec
Format profile                   : High@L3.0
Format settings, CABAC           : Yes
Format settings, ReFrames        : 6 frames
Format settings, GOP             : M=1, N=32
Codec ID                         : V_MPEG4/ISO/AVC
Duration                         : 27mn 28s
Bit rate                         : 2 409 Kbps
Width                            : 716 pixels
Height                           : 480 pixels
Display aspect ratio             : 4:3
Frame rate                       : 23.976 fps
Color space                      : YUV
Chroma subsampling               : 4:2:0
Bit depth                        : 8 bits
Scan type                        : Progressive
Bits/(Pixel*Frame)               : 0.292
Stream size                      : 474 MiB (91%)
Writing library                  : x264 core 112 r1834 a51816a
Encoding settings                : cabac=1 / ref=6 / deblock=1:-2:-2 / analyse=0x3:0x133 / me=umh / subme=10 / psy=1 / psy_rd=1.00:0.00 / mixed_ref=1 / me_range=24 / chroma_me=1 / trellis=2 / 8x8dct=1 / cqm=0 / deadzone=21,11 / fast_pskip=0 / chroma_qp_offset=-2 / threads=3 / sliced_threads=0 / nr=0 / decimate=1 / interlaced=0 / constrained_intra=0 / bframes=5 / b_pyramid=2 / b_adapt=2 / b_bias=0 / direct=3 / weightb=1 / open_gop=0 / weightp=1 / keyint=250 / keyint_min=23 / scenecut=40 / intra_refresh=0 / rc_lookahead=30 / rc=crf / mbtree=1 / crf=16.0 / qcomp=0.60 / qpmin=0 / qpmax=51 / qpstep=4 / ip_ratio=1.40 / aq=1:1.20
Language                         : English

Audio
ID                               : 2
Format                           : AC-3
Format/Info                      : Audio Coding 3
Mode extension                   : CM (complete main)
Muxing mode                      : Header stripping
Codec ID                         : A_AC3
Duration                         : 27mn 28s
Bit rate mode                    : Constant
Bit rate                         : 192 Kbps
Channel(s)                       : 2 channels
Channel positions                : Front: L R
Sampling rate                    : 48.0 KHz
Bit depth                        : 16 bits
Compression mode                 : Lossy
Stream size                      : 37.7 MiB (7%)
